# xmcd CD database file
#
# Track frame offsets:
#	150
#	22072
#	41782
#	60193
#	71664
#	91374
#	102258
#	118754
#	140199
#	154846
#	171517
#	185089
#	198586
#	218270
#	233129
#	256499
#	273996
#	293317
#	310863
#
# Disc length: 4400 seconds
#
# Revision: 2
# Processed by: cddbd v1.4b41PL1 Copyright (c) Steve Scherf et al.
# Submitted via: Feurio! 1.50.2ß - http://www.feurio.com
#
DISCID=1a112e13
DTITLE=Various Artist - Romantic Collection Golden [CD 2]
DYEAR=1900
DGENRE=
TTITLE0=ABBA - The Winner Takes It All
TTITLE1=Richard Marx - Hold On To The Nights
TTITLE2=Amanda Lear - Una Rosa Un Tango
TTITLE3=The Platters - Sixteen Tons
TTITLE4=James Last - Lonesome Shepherd
TTITLE5=Far Corporation - Stairway To Haven
TTITLE6=Status QUO - In The Army Now
TTITLE7=Foreigner - Waiting For A Girl Like You
TTITLE8=Fausto Papetti - Theeme From Paradise
TTITLE9=Gloria Gaynor - I Will Survive
TTITLE10=Roy Orbison - Oh, Pretty Woman
TTITLE11=Rafaella Carra - Tango
TTITLE12=James Last and Richard Clayderman - Reflections
TTITLE13=Joe Dassin - Salut
TTITLE14=Mylene Farmer - Regreti
TTITLE15=Julio Iglesias - Nostalgie
TTITLE16=Candy Dulfer - Lily Was Here
TTITLE17=Cliff Richard - Miss You Nights
TTITLE18=London Symphony Orchestra - The Winer Takes It All
EXTD=
EXTT0=
EXTT1=
EXTT2=
EXTT3=
EXTT4=
EXTT5=
EXTT6=
EXTT7=
EXTT8=
EXTT9=
EXTT10=
EXTT11=
EXTT12=
EXTT13=
EXTT14=
EXTT15=
EXTT16=
EXTT17=
EXTT18=
PLAYORDER=
